<svg version="1.1" xmlns="http://www.w3.org/2000/svg" viewBox="0 0 1222.5 419" width="1222.5" height="419">
  <!-- svg-source:excalidraw -->
  
  <defs>
    <style>
      @font-face {
        font-family: "Virgil";
        src: url("https://excalidraw.com/Virgil.woff2");
      }
      @font-face {
        font-family: "Cascadia";
        src: url("https://excalidraw.com/Cascadia.woff2");
      }
    </style>
  </defs>
  <rect x="0" y="0" width="1222.5" height="419" fill="#ffffff"></rect><g stroke-linecap="round" transform="translate(444 10) rotate(0 171.5 34)"><path d="M0 0 C0 0, 0 0, 0 0 M0 0 C0 0, 0 0, 0 0 M-0.58 6.56 C1.62 5.41, 2.66 3.71, 4.87 1.13 M-0.46 6.29 C0.79 4.9, 2.25 3.44, 5.13 0.11 M-0.55 11.05 C2.8 9.23, 7.46 6.14, 9.94 -0.08 M0.58 11.47 C3.82 7.96, 5.37 4.77, 10.78 0.15 M-0.87 19.5 C5.09 10.57, 11.16 5.83, 17.22 0.07 M0.25 17.46 C5.17 11.62, 11.46 5.3, 15.48 0.62 M0.67 25.11 C5.64 19.39, 9.07 14.59, 19.3 1.92 M0.72 24.89 C8.55 14.71, 17.47 4.75, 22.14 0.09 M1.96 30.61 C10.46 16.77, 21.89 8.65, 27.33 -0.9 M0.96 30.42 C7.97 21.02, 15.37 11.57, 26.62 -0.27 M1.26 35.68 C9.62 25.78, 21.25 14.73, 30.68 -0.93 M-0.87 35.89 C10.47 24.21, 20.9 13.8, 32.59 -0.46 M0.72 44.32 C12.2 30.62, 22.62 18.53, 35.18 0.42 M0.43 43.27 C10.69 31.72, 19.9 19.86, 37.03 0.26 M0.14 50.42 C12.25 35.51, 22.98 23.22, 42.05 0.18 M-0.3 48.8 C17.45 28.9, 32.94 10.85, 43.08 0.21 M-0.82 53.8 C14.32 41.2, 23.21 27.39, 46.39 -0.88 M-0.25 54.51 C18.7 33.33, 36.86 13.73, 47.49 1.13 M-0.1 61.55 C17.84 38.78, 37.13 19.1, 52.03 1.09 M0.73 60.12 C11.56 48.38, 23.05 35.97, 53.51 -0.99 M0.92 68.05 C15.77 47.08, 31.51 29.81, 58.06 -1.69 M0.38 66.62 C21.28 41.83, 45.41 14.1, 58.31 -0.01 M1.89 69.55 C25.55 41.37, 50.87 14.54, 65.7 -1.32 M3.34 69.31 C24.37 45.52, 45.77 20.21, 63.84 -0.9 M5.83 69.75 C26.4 51.09, 41.49 30.34, 68.76 -0.86 M7.62 70.99 C30.49 45.74, 53 19.67, 68.29 0.23 M11.54 69.88 C31.35 51.85, 46.38 31.27, 72.59 0.88 M13.78 70.52 C30.21 52.37, 46.77 32.39, 74.99 -1.14 M19.18 69.98 C39.33 46.28, 57.27 23.98, 80.51 -1.22 M18.69 69.62 C30.48 56.85, 44.29 41.71, 79.78 -0.01 M24.64 69.18 C38.1 52.81, 54.33 33.99, 84.74 0.62 M24.7 69.75 C48.19 42.62, 70.79 15.79, 85.94 -1.09 M27.98 69.08 C48.63 45.19, 69.2 20.5, 88.83 0.45 M28.13 70.95 C50.82 46.59, 71.53 22.31, 89.61 -0.88 M34.32 71.02 C54.91 48.87, 73.66 27.4, 94.62 -2.12 M35.13 69.67 C58.72 42.57, 83.43 15.72, 94.67 -0.9 M38.34 71.4 C62.1 44.93, 84.82 18.39, 100.67 -0.61 M40.11 69.65 C54.53 54.83, 67.36 38.16, 100.16 0.22 M44.52 71.76 C58.33 53.31, 73.92 38.64, 105.19 -2.34 M44.96 70.45 C68.22 45.8, 90.76 18.73, 107.17 -0.48 M50.86 70.32 C71.34 46.27, 89.49 22.23, 112.49 0.87 M50.8 70.61 C63.35 54.31, 76.95 40.55, 110.29 -0.39 M54.61 71.56 C69.36 52.55, 85.99 35.42, 115.22 0.76 M54.58 69.72 C70.23 53.93, 84.85 35.99, 115.8 0.24 M62.56 70.25 C76.72 49.97, 93.53 31.96, 120.17 -1.81 M61.41 69.98 C78.49 49.46, 97.52 27.38, 122.41 0.36 M65.47 68.83 C86.65 49.87, 102.13 29.32, 127.92 -1.27 M65.9 70.1 C87.85 44.92, 109 19.55, 126.9 1.3 M72.98 68.64 C93.64 45.56, 116.5 16.63, 133.12 -1.31 M71.14 70.11 C85.25 55.04, 98.93 38.78, 133.41 -0.73 M76.09 71.3 C93.75 46.97, 115.94 25.82, 136.97 0.44 M76.03 71.21 C95.37 49.48, 111.95 28.89, 137.84 0.26 M82.09 69.97 C96.29 57.51, 108.31 41.76, 144.15 1.73 M82.24 70.61 C99.8 50.57, 117.52 30.38, 143.74 -0.13 M88.96 70.7 C108.56 48.92, 126.76 25.55, 147.23 -0.99 M87.58 71.39 C112.15 42.58, 136.42 15.6, 148.7 0.14 M92.35 71.73 C115.87 44.48, 138.92 15.26, 155.6 0.71 M92.94 69.32 C115.21 42.66, 138.92 16.88, 154.32 -0.58 M96.01 68.8 C119.15 44.82, 145.2 20.01, 159.98 -1.4 M97.67 70.73 C117.31 48.73, 138.07 26.38, 158.54 1.19 M102.69 70.46 C124.56 44.99, 142.21 24.49, 165.25 1.06 M102.5 69.31 C126.04 44.03, 149.15 17.9, 163.61 -0.08 M108.64 71.41 C131.23 42.59, 154.45 17.45, 170.99 0.41 M108.95 70.03 C124.59 50.97, 141.65 30.7, 168.45 -0.09 M114.49 71.74 C138.15 41.83, 162.73 17.31, 176.34 -1.77 M114.21 69.88 C132.91 49.97, 149.39 29.48, 174.59 -0.88 M119.74 70.36 C137.08 50.16, 153.43 29.02, 180.49 0.67 M118.58 69.83 C140.07 45.93, 162.06 20.97, 180.55 0.03 M125.63 68.17 C148.63 41.43, 172.77 14.7, 187.6 -0.27 M124.35 69.58 C146.96 43.79, 168.4 18.55, 185.74 -0.53 M129.64 69.51 C148.19 47.46, 171.64 23.7, 191.2 0.63 M129.23 69.44 C154.25 41.99, 178.27 15.78, 190.93 -0.5 M136.42 69.38 C155 46.66, 177.86 22.46, 195.21 -0.94 M135.23 69.17 C155.96 45.61, 176.06 20.72, 196.07 -0.81 M140.17 70.77 C164.86 44.03, 184.06 19.04, 202.29 0.57 M140.1 69.85 C160.18 47.11, 181.79 22.62, 200.76 -0.47 M147.66 68.02 C162.24 53.57, 177.69 34.92, 206.83 -2.21 M146.18 70.67 C160.43 54.28, 174.07 39.17, 206.1 -0.79 M152.6 72.07 C171.78 48.69, 189.29 23.74, 211.39 1.82 M151.89 70.83 C168.54 48.92, 187.83 29.02, 211.16 -0.46 M154.63 69.79 C171.55 48.18, 190.36 32.8, 215.6 -0.5 M156.54 70.32 C174.72 49.69, 191.26 29.97, 216.85 0.21 M161.69 69.35 C180.22 46.95, 201.81 20.07, 220.62 0.73 M161.82 69.85 C177.56 53.08, 190.95 35.88, 222.32 0.2 M168.4 72.18 C185.65 51.56, 203.49 31.05, 230.09 -0.2 M165.99 70.35 C183.43 52.41, 201.15 32.58, 228.89 -0.41 M173.66 70.62 C188.5 49.26, 205.9 31.15, 234.56 -1.32 M172.63 71.13 C190.26 47.73, 210.56 24.93, 232.42 0.41 M176.48 71.43 C192.27 53.37, 207.16 38.45, 239.73 1.09 M176.24 70.96 C191.64 52.95, 204.3 37.01, 238.61 1.25 M184.2 69.89 C206.7 45.95, 227.14 18.82, 242.25 0.07 M183.57 70.64 C205.45 44.65, 227.46 18.95, 244.65 0.3 M188.91 69.08 C210.31 42.14, 236.1 18.72, 247.36 -0.45 M188 69.86 C201.49 54.19, 216.31 37.31, 247.92 -0.46 M192.45 69.21 C215.69 46.29, 236.49 21.83, 255.22 -1.63 M193.42 71.05 C215.72 44.95, 238.28 18.38, 254.23 0.24 M198.81 70.95 C215.19 49.89, 234.25 28.43, 259.32 -0.36 M198.67 70.22 C217.31 50.44, 235.08 29.63, 259.24 0.85 M203.06 68.68 C217.59 54.73, 227.41 42.97, 265.45 -1.97 M203.45 70.79 C217.05 55.69, 228.84 42.99, 265.38 -0.17 M207.8 69.89 C221.28 53.93, 237.45 38.49, 270.08 1.09 M208.68 70.46 C221.67 55.93, 233.7 40.71, 269.21 -0.48 M216.11 68.41 C235.48 43.22, 257.99 20.34, 275.39 0.56 M214.47 71.02 C234.39 47.96, 252.43 24.85, 276.36 -1.09 M219.96 71.78 C241.58 45.17, 262.21 19.83, 279.59 1.69 M220.46 71.23 C241.06 47.04, 260.55 23.25, 280.94 -0.39 M225.17 70.54 C240.44 49.91, 258.36 31.28, 287.96 -1.49 M225.79 70.63 C239.1 54.62, 253.69 37.32, 286.42 0.55 M231.84 69.54 C250.68 45.8, 270.15 24.12, 291.24 -0.77 M229.46 70.41 C244.65 53.97, 258.86 36.71, 291.08 -0.05 M235.28 69.26 C252.78 49.6, 271.88 29.54, 296.57 1.45 M236.24 69.24 C249.91 53.32, 265.31 36.74, 296.85 0.06 M242.45 69.11 C261.18 47.61, 283.58 20.94, 301.92 1.55 M241.13 70.12 C253.68 56.22, 267.55 39.64, 302.78 1.08 M244.93 68.76 C270.98 42.38, 292.79 17.11, 307.07 -2.04 M247.18 70.22 C264.32 49.33, 282.38 28.54, 307.92 -0.03 M251.29 71.46 C265.85 53.18, 280.71 38.12, 311.97 0.51 M251.96 69.72 C274.68 42.56, 297.56 16.7, 312.73 0.29 M256.09 69.3 C281.72 41.98, 306.54 15.52, 319.78 1.69 M257.46 69.65 C279.24 45.66, 301.22 20.21, 317.96 -0.95 M260.29 70.6 C286.3 44.25, 311.24 14.92, 323.21 2.02 M262.45 70.78 C283.66 44.53, 305.73 19.3, 324.11 0.59 M268.2 69.15 C279.51 56.89, 291.47 39.97, 327.51 1.3 M268.46 69.38 C280.54 54.12, 294.93 39.45, 328.28 -0.67 M271.9 71.57 C287.9 52.7, 307.77 34.32, 332.91 -0.01 M272.11 70.13 C286.73 54.47, 302.35 38.41, 333.63 -0.27 M279.52 71.36 C299.4 46.46, 322.5 21.99, 337.53 -1.52 M278.42 70.7 C295.64 52.7, 312.79 32.18, 340.23 -0.96 M282.99 68.43 C298.09 52.12, 315.84 33.41, 343.18 -0.85 M284.46 70.83 C305.83 44.3, 328.49 18.67, 343.85 -0.05 M287.73 70.75 C301.69 58.71, 309.58 43.37, 343.01 5.5 M288.06 70.43 C310.62 46.13, 331.18 21.93, 343.59 7.2 M294.94 70.3 C305.43 57.82, 315.77 42.69, 343.05 14.05 M294.04 71.16 C313.05 47.74, 332.13 25.48, 344.34 12.04 M300.02 72.46 C309.88 57.28, 320.48 48.37, 344.78 21.1 M299.65 70.33 C314.73 52.03, 331.42 32.98, 343.36 18.5 M303.56 71.29 C320.15 54.36, 333.24 34.79, 346.04 23.39 M305.42 69.65 C312.56 60, 321.78 50.52, 344.17 24.63 M309.71 70.87 C321.02 58.07, 328.12 47.58, 345.45 29.53 M310.62 71.18 C321.53 55.96, 334.01 42.07, 342.87 31.38 M317.17 68.57 C326.51 59.16, 333.83 49.41, 342.67 37.98 M316.16 70.06 C321.92 61.92, 327.48 55.13, 343.47 37.17 M321.58 72.41 C330.01 62.07, 338.92 52, 342.15 44.63 M319.95 70.48 C325.67 64.94, 331.16 58.43, 343.52 43 M326.52 68.33 C332.61 63.5, 337.31 57.96, 342.86 48.4 M325.86 70.39 C330.07 63.91, 334.85 59.5, 342.83 50.56 M329.88 69.54 C334.58 62.78, 340.58 58.49, 344.51 55.24 M331.09 69.46 C334.68 65.29, 338.74 62.13, 343.72 55.78 M335.65 71 C337.64 67.96, 339.4 66.01, 342.87 62.7 M336.9 69.93 C338.93 68.24, 339.75 66.33, 344.15 62.27" stroke="#ced4da" stroke-width="0.5" fill="none"></path><path d="M0.43 -0.56 C108.76 -0.46, 219.65 0.5, 343.77 -0.07 M-0.49 -0.16 C119.53 1.76, 237.48 2.52, 343.1 0.25 M341.12 -1.12 C345 25.57, 345.09 46.35, 342.38 67.93 M343.59 0.23 C343.92 23.27, 343.44 47.74, 342.84 68.14 M343.25 68.78 C245.72 68.03, 148.12 68.64, 0.45 68.75 M343.41 68.61 C220.62 66.95, 97.7 67.66, -0.21 68.28 M0.94 69.05 C-0.81 53.29, -1.6 36.37, -1.29 0.31 M0.25 67.07 C0.26 48.28, -0.83 27.59, -0.91 0.23" stroke="#000000" stroke-width="1" fill="none"></path></g><g transform="translate(503.5 17) rotate(0 112 27)"><text x="112" y="19" font-family="Virgil, Segoe UI Emoji" font-size="20px" fill="#000000" text-anchor="middle" style="white-space: pre;" direction="ltr">AbstractGenericMatrix</text><text x="112" y="46" font-family="Virgil, Segoe UI Emoji" font-size="20px" fill="#000000" text-anchor="middle" style="white-space: pre;" direction="ltr">&lt;T extends Number&gt;</text></g><g stroke-linecap="round" transform="translate(444.5 122) rotate(0 171.5 32)"><path d="M0 0 C0 0, 0 0, 0 0 M0 0 C0 0, 0 0, 0 0 M-0.28 5.98 C1.04 4.58, 3.3 2.22, 4.66 0.53 M-0.35 6.5 C1.37 4.12, 3.82 2.27, 4.71 0.52 M0.64 11.52 C1.93 8.93, 6.17 5.1, 11.63 0.9 M-0.16 12.34 C3.11 8.64, 6.25 4.15, 11.24 -0.43 M-1.71 18.28 C5.05 12.49, 7.25 10.19, 16.07 1.64 M-0.37 19.07 C5.9 12.75, 10.75 5.31, 15.84 -0.35 M1.13 25.78 C7.97 15.27, 11.45 11.44, 22.9 -1.76 M0.53 23.36 C6.53 16, 12.92 8.06, 21.04 0.02 M0.14 32.29 C11.71 17.05, 21.27 8.06, 26.38 0.74 M0.73 30.19 C7.27 21, 17.06 12.43, 25.86 0.35 M-1.92 37.31 C9.28 26.9, 19.33 16.39, 32.88 0.44 M-1.23 35.97 C6.9 27.62, 16.4 18.39, 31.7 -0.92 M-1.03 41.36 C8.36 34.94, 15.28 26.82, 37.21 -0.11 M-0.59 42.53 C14.06 27.13, 27.06 11.63, 36.12 0.04 M-0.6 47.92 C15.99 30.48, 29.02 16.1, 43.18 0.53 M0.4 48.1 C14.66 32.13, 28.02 16.29, 41.91 -0.01 M0.5 55.89 C14.84 38.36, 28.67 23.22, 47.68 0.39 M1.02 53.61 C18.62 32.54, 37.04 11.3, 46.67 -0.57 M-0.06 61.27 C10.89 47.38, 26.52 33.02, 53.2 1.78 M-0.41 61.41 C14.17 45.7, 28.76 29.65, 53.93 0.09 M1.84 63.29 C17.22 48.09, 30.54 31.83, 59.95 0.98 M1.95 65.42 C12.73 52.34, 24.95 38.91, 58.75 -0.26 M4.8 66.17 C25.01 44.94, 41.95 27.92, 62.37 -0.07 M6.98 65.76 C20.8 50.06, 35.2 32.44, 64.77 -0.27 M10.65 63.84 C27.46 48.5, 41.27 34.67, 69.23 -0.11 M11.89 65.47 C34.57 39.8, 56.32 14.48, 67.85 -0.28 M18.92 65.51 C38.64 43.08, 59.04 17.23, 76.16 1.17 M18.26 65.1 C28.7 53.08, 40.36 38.93, 75.16 -0.72 M23.57 63.95 C35.45 47.55, 50.51 34.5, 77.73 0.8 M23.2 64.88 C38.15 48.78, 51.03 32.02, 78.72 0.61 M28.97 65.12 C41.7 50.98, 51.26 38.92, 84.04 0.19 M27.01 65.39 C47.4 41.64, 68.44 19.77, 84.56 0.13 M34.49 63.91 C53.93 41.04, 74.14 17.96, 88.71 -1.13 M34.17 65.21 C50.58 44.45, 66.78 26.45, 90.3 -0.82 M38.58 65.78 C56.96 44.21, 77.44 23.23, 97.54 -1.87 M39.02 65.58 C60.88 40.28, 82.24 13.94, 96.19 -0.33 M43.29 66.49 C58.55 48.8, 76.72 29.12, 100.47 -1.27 M44.81 64.06 C62.89 43.89, 82.29 23.48, 100.79 0.73 M50.4 65.75 C68.68 43.52, 89.72 20.86, 108.21 0.59 M49.3 65.16 C70.46 41.9, 90.52 19.2, 105.98 0.33 M53.25 63.68 C69.92 50.37, 84.42 30.61, 112.31 0.48 M55.21 64.79 C74.25 42.75, 94.5 19.5, 110.62 0.04 M60.14 66.74 C81.86 38.07, 102.74 13.11, 116.99 0.42 M59.08 65.11 C79.06 41.28, 98.78 19.56, 116.95 1.3 M63.64 63.68 C85.64 42.53, 105.05 19.25, 122.58 1.66 M65.17 66.5 C79.52 47.67, 96.26 28.65, 121.47 0.43 M70.52 63.95 C87.46 41.28, 107.98 20.52, 126.8 0.64 M70.85 64.93 C82.81 51.2, 94.87 35.95, 126.82 0.51 M75.79 65.42 C98.05 40.16, 116.84 16.56, 130.68 -0.67 M75.25 65.6 C87.46 52.66, 99 37.95, 133.22 0.74 M81.29 64.03 C102.44 41.42, 124.65 18.51, 136.63 1.04 M81.32 65.64 C96.14 48.89, 110.25 32.75, 137.06 0.17 M85.73 65.53 C103.38 43.1, 121.5 23.56, 143.01 -0.02 M86.42 65.73 C106.58 41.2, 125.95 18.96, 143.01 0.31 M91.25 67.11 C113.37 38.41, 135.97 13.62, 146.17 1.09 M92.43 64.77 C109.11 44.77, 125.4 25.82, 148.57 0.78 M97.51 65.13 C114.28 41.83, 135.19 20.82, 155.02 1.58 M96.35 65.55 C116.23 43.71, 133.56 22.96, 154.21 0 M104.21 64.78 C116.19 47.54, 130.47 32.95, 157.11 -1.25 M102.36 65.38 C118.15 47.16, 134.62 29.11, 157.94 0.83 M109.2 63.8 C126.69 41.5, 146.28 20.14, 165.17 -0.42 M106.47 65.76 C122.52 48.89, 136.14 34.1, 165.42 -0.8 M111.02 66.11 C130.67 48.07, 147.79 27.37, 171.2 0.45 M112.54 65.03 C126.23 51.98, 137.78 37.82, 168.53 -0.18 M118.94 65.58 C134.85 48.76, 148.1 28.87, 176.99 0.87 M118.94 66.04 C130.02 51.01, 143.06 35.49, 175.48 0.79 M123.57 63.63 C134.92 53.09, 147.96 37.73, 180.21 -0.92 M124.6 64.8 C136.12 49.68, 147.95 35.85, 179.41 -0.71 M126.87 65 C140.44 51.77, 153.12 38.19, 184.99 -2.17 M127.64 66.12 C145.11 48.3, 160.4 30.15, 186.46 0.19 M132.76 63.34 C155.32 39.19, 177.89 15.17, 191.95 0 M133.43 64.29 C155.72 41.58, 175.12 16.56, 190.39 -0.23 M141.15 65.03 C161.53 43.06, 180.3 16.55, 196.77 -1.69 M139.21 64.72 C151.26 51.65, 164.45 36.3, 196.66 0.32 M146.54 66.72 C164.04 41.76, 189.05 14.79, 200.25 -0.97 M144.16 64.61 C164.28 42.34, 183.46 20.83, 201.03 -0.17 M148.02 67.13 C163.94 51.5, 174.99 36.74, 206.9 -0.37 M150 64.59 C171.97 39.13, 192.72 13.91, 207.63 0.62 M155.88 64.69 C168.95 49.29, 179.89 36.55, 210.98 0.48 M155.12 65.39 C167.33 50.62, 179.76 38.2, 211.6 1.04 M161.69 65.24 C180.22 44.66, 200.41 21.46, 219.03 -1.44 M161.11 65.49 C176.25 47.42, 191.12 29.49, 217.14 0.05 M164.15 64.43 C182.92 45.97, 200.54 27.15, 224.02 -0.88 M166.26 66.52 C180.55 47.22, 197.82 29.29, 222.12 0.98 M170.45 63.73 C188.61 46.43, 208.72 22.86, 227.82 1.36 M171.37 65.19 C189.3 43.82, 207.72 22.46, 228.19 0.08 M175.67 64.3 C192.21 46.52, 209.57 26.15, 231.32 -1.83 M176.7 66.17 C189.45 50.56, 200.62 36.64, 233.34 0.26 M182.6 63.47 C197.02 48.74, 214.46 27.98, 236.31 -1.49 M182.34 64.5 C203.02 42, 223.4 17.68, 237.37 0.45 M185.88 64.4 C201.71 51.06, 215.16 33.15, 242.83 -0.65 M185.84 66.25 C205.48 44.9, 223.07 22.96, 243.75 -0.49 M192.48 63.79 C215.18 42.15, 234.8 17.39, 248.53 -0.33 M193.31 66.2 C209.99 44.7, 226.75 25.05, 248.48 1.16 M197.86 65.55 C212.79 46.63, 230.68 28.46, 252.54 0.82 M196.98 66.47 C212.79 47.34, 228.14 30.02, 254.57 0.35 M202.45 64.49 C218.79 45.95, 232.38 29.01, 259.58 0.27 M202.33 66.14 C219.74 45.77, 234.52 28.79, 259.57 -0.03 M207.75 64.02 C224.88 46.05, 239.95 28.62, 264.47 -0.76 M207.64 66.01 C228.3 39.5, 251.26 14.86, 264.74 0.45 M212.9 63.83 C230.77 48.03, 243.46 29.67, 268.25 0.43 M213.15 66.15 C232.03 44.68, 250.85 22.37, 270.58 0.43 M218.71 65.57 C234.59 46.25, 248.87 27.85, 274.68 -0.3 M218.58 64.62 C235.79 44.13, 254.22 23.71, 275.96 0.45 M224.26 64.55 C245.36 39.86, 267 16.71, 282.36 -0.25 M224.28 65.08 C239.07 47.19, 255.62 29.92, 281.7 -0.42 M230.94 67.42 C246.17 46.51, 262.15 26.94, 285.25 1.79 M228.79 65.52 C251.23 40.24, 272.66 15.77, 285.66 -0.94 M235 63.85 C248.67 49.52, 259.6 33.54, 292.76 -0.71 M233.95 65.81 C248.25 50.34, 261.42 34.79, 292.34 1 M239.66 64.26 C252.86 49.03, 267.59 33.47, 298.29 1.57 M240.49 64.46 C256.73 47.4, 271.89 28.89, 297.98 -0.03 M243.61 63.42 C258.45 52.37, 269.29 40.9, 303.33 -0.42 M245.13 64.21 C266.7 40.23, 287.16 16.8, 302.14 -0.25 M249.13 66.24 C268.27 48.7, 279.94 30.75, 305.96 1.53 M250.15 64.72 C267.91 46.26, 286.37 26.71, 306.82 -1.11 M254.6 63.38 C271.24 46.66, 288.68 27.85, 312.98 -1.38 M256.53 64.2 C273.58 45.91, 290.16 26.54, 312 -0.56 M262.63 64.99 C275.11 50.17, 289.11 31.72, 316.43 0.68 M261.47 66.09 C281.34 44.66, 300.45 21.01, 318.8 0.55 M268.54 64.36 C287.24 41.22, 304.69 19.99, 321.67 1.89 M267.58 64.68 C281.66 47.92, 297.8 30.58, 323.03 -0.82 M272.48 63.62 C296.29 38.76, 315.85 13.05, 327.91 0.46 M272.38 65.85 C289.44 45.45, 307.76 24.69, 328.29 -0.3 M275.99 65.42 C301.24 41.3, 319.18 14.83, 332.35 0.33 M277.45 64.6 C289.72 50.79, 301.1 38.32, 333.58 0.6 M282.04 66.67 C298.41 49, 311.84 30.75, 338.65 -1.19 M282.03 65.83 C299.85 47.01, 316.33 27.73, 340.38 0.1 M286.94 66.88 C297.95 52.59, 310.58 40.29, 344.39 1.09 M287.41 66.65 C302.22 48.11, 316.67 32.66, 343.59 1.59 M291.68 66.19 C306.15 51.16, 317.96 34.15, 342.34 7.65 M293.84 65.35 C302.7 52.08, 313.26 39.33, 343.34 7.06 M299.32 65.25 C312.99 46.76, 327.05 30.67, 343.63 14.61 M298.39 65.29 C308.91 53.12, 321.31 38.17, 343.68 12.39 M304.83 63.67 C312.68 55.37, 322.02 46.98, 341.93 20.83 M304.42 64.28 C316.8 49.23, 332.45 33.46, 343.35 18.38 M309.17 63.75 C318.82 51.89, 329.94 38.79, 343.99 24.94 M308.13 66.26 C318 54.05, 327.55 42.62, 343.77 24.84 M313.91 64.09 C324.55 51.94, 336.63 38.6, 343.68 33.15 M314.66 65.95 C321.39 56.96, 328.97 48.4, 343.65 30.32 M319.2 67.35 C323.26 58.52, 329.93 54.42, 343.91 37.62 M318.72 66.54 C325.66 59.49, 329.79 53.23, 344.47 37.4 M326.41 65.88 C329.79 58.38, 334.49 55.25, 345.96 44.41 M324.65 64.27 C332.75 57.41, 340.08 49.37, 344.27 42.7 M328.14 65.47 C332.76 61.42, 336.51 59.28, 344.83 51.44 M329.02 66.16 C332.84 60.76, 337.36 56.9, 344.62 49.75 M335.09 66.32 C338.41 63.09, 341.36 58.72, 344.79 56.33 M335.03 64.8 C337.48 62.42, 340.92 59.5, 344.68 55.36 M340.62 65.62 C341.21 64.31, 341.95 64.05, 344.2 61.52 M340.33 65.41 C341.3 64.55, 341.85 63.83, 343.97 61.89" stroke="#868e96" stroke-width="0.5" fill="none"></path><path d="M0.05 -1.15 C130.95 -2.61, 260.46 -1.93, 343.43 -0.41 M0.65 -0.63 C98.26 1.73, 196.46 1.68, 342.68 0.61 M341.16 -0.98 C344.54 14.54, 343.09 26.07, 343.63 63.49 M342.98 0.81 C344.08 24.9, 343.29 48.72, 343.86 64.79 M342.43 63.6 C222.78 64.12, 99.69 63.93, -1.3 63.56 M342.67 63.57 C227.9 64.09, 111.57 64.68, 0.22 64.47 M1.09 63.69 C-0.95 46.69, 1.39 31.77, 1.25 1.45 M-0.1 64.15 C0.52 41.21, 0.77 16.99, 0.29 0.61" stroke="#000000" stroke-width="1" fill="none"></path></g><g transform="translate(515 127) rotate(0 101 27)"><text x="101" y="19" font-family="Virgil, Segoe UI Emoji" font-size="20px" fill="#000000" text-anchor="middle" style="white-space: pre;" direction="ltr">GenericMatrix</text><text x="101" y="46" font-family="Virgil, Segoe UI Emoji" font-size="20px" fill="#000000" text-anchor="middle" style="white-space: pre;" direction="ltr">&lt;T extends Number&gt;</text></g><g stroke-linecap="round"><g transform="translate(607 82.66577325113911) rotate(0 0.4474120534191002 17.27311660265272)"><path d="M0.9 0.12 C1.09 5.79, 0.88 28.46, 0.81 34.34 M-0.09 -0.86 C0.05 4.9, 0.28 29.12, 0.29 35.4" stroke="#000000" stroke-width="1" fill="none"></path></g><g transform="translate(607 82.66577325113911) rotate(0 0.4474120534191002 17.27311660265272)"><path d="M-5.66 20.07 C-5.47 24.01, -2.22 27.78, -0.65 34.97 M-5.08 18.21 C-3.43 22.24, -2.94 27.28, 1.1 35.39" stroke="#000000" stroke-width="1" fill="none"></path></g><g transform="translate(607 82.66577325113911) rotate(0 0.4474120534191002 17.27311660265272)"><path d="M6.4 19.99 C3.32 24.04, 3.32 27.84, -0.65 34.97 M6.98 18.14 C5.6 22.27, 3.05 27.34, 1.1 35.39" stroke="#000000" stroke-width="1" fill="none"></path></g></g><g stroke-linecap="round"><g transform="translate(608 195) rotate(0 -217.4088145414702 73.25057768017055)"><path d="M-0.6 0.2 C-8.78 11.08, 15.91 52.38, -49.92 65.34 C-115.76 78.29, -331.77 64.47, -395.63 77.93 C-459.48 91.39, -426.59 134.55, -433.08 146.09 M1.28 -0.74 C-6.45 9.76, 18.55 50.07, -47.7 63.39 C-113.94 76.72, -332.07 65.24, -396.19 79.22 C-460.32 93.19, -426.37 136.35, -432.47 147.24" stroke="#000000" stroke-width="1" fill="none"></path></g><g transform="translate(608 195) rotate(0 -217.4088145414702 73.25057768017055)"><path d="M-445 118.6 C-441.8 127.05, -439.52 133.82, -432.32 145.97 M-446.34 120.81 C-441.07 130.41, -434.75 141.68, -432.13 148.11" stroke="#000000" stroke-width="1" fill="none"></path></g><g transform="translate(608 195) rotate(0 -217.4088145414702 73.25057768017055)"><path d="M-424.58 116.66 C-426.07 125.46, -428.47 132.67, -432.32 145.97 M-425.91 118.88 C-428.79 129.13, -430.62 141.17, -432.13 148.11" stroke="#000000" stroke-width="1" fill="none"></path></g></g><g stroke-linecap="round" transform="translate(10 347) rotate(0 109.5 31)"><path d="M0 0 C0 0, 0 0, 0 0 M0 0 C0 0, 0 0, 0 0 M-0.02 6.72 C1.72 3.84, 3.21 2.51, 5.72 0.22 M-0.31 6.06 C1.02 4.52, 2.63 3.15, 4.98 0.45 M0.16 10.68 C4.13 9.18, 6.64 5.54, 12.1 -1.4 M0.39 12.33 C3.01 8.25, 5.6 4.84, 9.92 0.17 M0.46 20.41 C4.83 11.24, 10.28 2.73, 13.63 1.33 M-0.17 19.33 C4.95 11.63, 9.44 6.89, 15.15 0.24 M1.55 22.29 C7.34 14.2, 17.91 5.43, 22.21 0.04 M-0.17 25.04 C8.96 13.79, 16.2 4.78, 22.2 0.5 M-1.98 31.31 C7.3 22.52, 10.47 18.07, 26.18 -1.15 M-0.71 30.56 C7.09 20.59, 15.95 12.84, 27.21 0.01 M0.59 35.59 C8.01 23.87, 20.32 13.26, 30.14 -0.54 M-0.78 36.53 C9.37 24.33, 20.97 12.37, 30.91 0.58 M1.52 44.05 C15.05 27.62, 28.79 8.59, 35.37 -1.44 M0.68 43.15 C9.15 32.99, 18.15 21.76, 36.05 -0.5 M-2.12 48.33 C14.98 32.19, 30.31 12.88, 44.42 -0.51 M-0.36 49.14 C13.34 31.57, 29.11 14.91, 42.48 -0.82 M-0.48 55.23 C13.73 41.59, 25.82 24.26, 49.15 1.94 M-0.56 54.03 C9.23 43.36, 20.37 32.4, 46.77 -0.18 M1.09 60.39 C19.15 36.53, 39.38 16.79, 51.28 1.6 M0.37 60.93 C19.59 38.88, 39.88 16.01, 53.27 -0.95 M0.58 65.68 C24.46 40.36, 41.65 17.83, 58.5 -0.09 M2.72 63.85 C20.77 43.41, 37.55 24.43, 57.73 0.6 M9.43 63.25 C24.19 48.59, 34.63 33.1, 64.96 -0.3 M8.43 64.67 C23.39 44.46, 40.78 25.73, 64.38 -0.05 M13.87 63.4 C31.38 44.12, 47.73 23.63, 67.41 -1.1 M12.97 65.03 C30.74 42.99, 49.78 21.49, 69.52 0.99 M18.05 63 C34.87 47.83, 44.98 29.57, 73.72 -1.81 M17.99 63.71 C32.25 48.81, 44.52 32.69, 74.64 -0.34 M23.51 64.21 C37.9 49.63, 51.04 32.61, 78.94 -1.23 M23.32 63.33 C37.28 46.78, 52.03 31.45, 79.97 0.63 M27.73 64.15 C50.97 39.95, 71.77 16.94, 85.87 -2.07 M29.05 62.93 C43.09 46.56, 58.43 28.9, 85.61 -1.04 M34.18 62.6 C51.48 43.02, 70.22 24.78, 89.14 -1.13 M34.14 63.73 C54.4 40.04, 75.08 15.35, 89.11 0.72 M38.91 63.67 C55.09 47.25, 70.95 25.61, 95.75 -1.75 M40.48 63.69 C58.4 42.06, 78.68 20.26, 96.58 0.67 M44.59 63.52 C67.78 39.89, 86.09 14.76, 101.13 0.01 M45.54 63.24 C57.17 50.49, 68.34 37.02, 100.25 0.93 M51.07 64 C66.41 46.7, 82.01 28.87, 105.71 -1.05 M50.39 63.87 C69.24 43.13, 87.76 22.72, 105.6 0.61 M57.47 64.4 C76.18 40.42, 99.1 14.83, 111.02 -1.52 M56.36 63.85 C73.01 45.07, 91.95 24.75, 110.91 0.48 M60.06 63.81 C74.05 49.89, 83.2 36.55, 115.51 -0.96 M60.44 63.61 C80.37 42.31, 100.44 18.33, 115.76 1.37 M65.61 65.13 C82.02 45.23, 97.94 29.22, 121.98 0.03 M65.18 63.61 C85.27 42.69, 104.33 21.92, 121.85 -0.92 M70.73 64.96 C86.06 50.44, 100.37 34.41, 126.88 -0.23 M71.54 65.31 C89.06 43.28, 106.61 23.73, 126.89 0.3 M77.79 66.07 C86.76 50.86, 101.32 39.14, 134.21 1.88 M77.32 63.54 C95.47 44.4, 113.03 21.8, 132.06 -0.02 M82.99 63.06 C98.15 43.05, 118.96 22.41, 137.62 -0.93 M80.81 65.16 C101.69 41.07, 121.83 18.24, 136.56 1.03 M88.87 66.05 C102.68 47.42, 115.07 30.9, 142.93 -1.28 M87.82 64.72 C100.96 49.66, 112.36 35.9, 143.76 -1.08 M92.44 66.4 C113.94 37.69, 133.82 14.47, 146.22 -1.36 M93.31 65.1 C112.01 42, 131.64 17.94, 147.74 -0.57 M97.7 64.37 C113.17 46.13, 127.72 30.62, 152.39 0.7 M98.47 63.2 C120.71 38.98, 141.18 12.49, 153.42 -0.81 M103.72 62.79 C115.91 46.46, 130.65 31.76, 157.22 -1.4 M102.32 64.58 C116.81 47.43, 132.03 30.12, 159.14 -0.58 M109.18 62.79 C126.31 41.18, 147.94 22.1, 165.9 -0.54 M108.78 63.09 C124.86 45.73, 139.95 25.86, 164.74 0.55 M112.48 65.46 C134.01 43.01, 153.55 21.24, 171.15 -0.42 M114.32 63.57 C134.48 41.64, 152.66 19.94, 170.19 -0.1 M120.24 63.55 C130.57 50.12, 144.36 31.21, 175.75 -1.92 M119 63.48 C140.5 40.92, 160.4 17.17, 175.65 0.31 M123.42 63.15 C140.88 46.27, 155.84 26.73, 178.61 0.64 M124.08 63.56 C145.72 38.83, 167.44 15.18, 180.07 -0.18 M129.84 63.36 C153.26 37.55, 174.24 11.88, 185.31 1.13 M129.12 63.49 C150.66 39.37, 171.74 15.71, 185.3 0.29 M136.27 66.03 C155.32 38.96, 175.92 16.05, 190.21 1.35 M135.57 64.56 C149.52 47.19, 163.53 31.35, 190.68 1.11 M140.97 63.39 C160.94 41.94, 176.17 21.15, 194.95 0.65 M139.86 63.27 C156.53 45.09, 173.09 28.52, 197.11 -0.18 M143.78 63.77 C159.27 49.35, 173.02 33.37, 202.59 -0.29 M145 64.08 C164.39 44.06, 181.26 23.68, 201.66 -0.24 M150.65 63.28 C161.55 48.8, 175.93 36.12, 208.09 -1.87 M151.67 62.97 C171.56 41.52, 191.17 18.25, 207.69 -1.26 M157.73 63.5 C167.54 49.03, 182.19 34.38, 212.44 -1.79 M155.81 64.16 C169.94 48.68, 184.42 34.4, 211.4 0.72 M159.93 63.14 C180.48 44.25, 198.6 19.54, 217.18 -1.45 M161.73 63.74 C175.63 48.87, 188.24 34.15, 217.93 0.42 M166.96 63.8 C180.85 44.34, 196.81 27.92, 221.16 3.32 M167.69 64.34 C178.16 50.68, 188.6 38.92, 220.68 2.51 M171.25 66.31 C190.64 41.49, 209.08 18.24, 222.46 8.65 M172.33 65.53 C187.12 48.9, 200.76 31.8, 220.71 7.03 M179.3 64.74 C191.16 44.53, 208.16 27.73, 218.95 14.27 M177.55 64.7 C191.58 48.48, 203.04 33.2, 219.83 14.96 M181.02 66.33 C191.86 54.58, 199.42 45.61, 220.39 21.8 M182.41 65.03 C194.46 50.84, 204.89 37.16, 220.29 19.45 M187.64 65.86 C195.22 54.2, 202.53 48.15, 221.08 26.88 M188.54 64.82 C197.2 52.77, 207.4 43.31, 219.91 26 M193.75 65.46 C202.87 54.9, 210.39 46.57, 221.77 33.61 M192.73 65.2 C202.87 53.53, 211.04 43.86, 221.54 31.81 M199.89 64.16 C204.12 58.92, 209.67 48.68, 219.7 38.26 M199.04 64.78 C205.15 58.27, 210.61 50.98, 221.6 37.45 M202.61 65.69 C211.82 57.98, 218.51 48.74, 222.53 43.67 M203.4 65.29 C207.37 60.91, 210.56 54.57, 221.59 44.28 M209.03 64.09 C212.87 60.72, 216.41 55.58, 221.6 51.16 M209.64 64.2 C213.44 58.87, 218.23 52.9, 221.85 50.36 M214.56 63.94 C216.22 61.44, 218.44 61.23, 220.23 57.83 M214.3 64.46 C216.72 61.12, 218.88 58.49, 220.84 57.08" stroke="#fa5252" stroke-width="0.5" fill="none"></path><path d="M-1.1 -0.15 C68.48 1.51, 136.57 -0.18, 219.28 -0.16 M0.21 -0.81 C77.19 0.78, 154.66 2.38, 218.81 0 M217.97 1.34 C221.13 21.23, 217.97 39.8, 219.18 60.82 M219.23 -0.45 C219.29 19.08, 218.24 39.02, 219.2 62.42 M219.41 61.18 C145.46 62.8, 72.82 63.33, -0.32 61.97 M219.24 61.93 C163.5 61.3, 107.81 61.73, 0.27 62.13 M-0.45 61.66 C1.35 42.38, 0.51 20.26, -0.49 1.93 M0.04 61 C0.65 45.52, -0.06 29.36, 0.69 -0.41" stroke="#000000" stroke-width="1" fill="none"></path></g><g transform="translate(60 364.5) rotate(0 59.5 13.5)"><text x="59.5" y="19" font-family="Virgil, Segoe UI Emoji" font-size="20px" fill="#000000" text-anchor="middle" style="white-space: pre;" direction="ltr">ShortMatrix</text></g><g stroke-linecap="round" transform="translate(263.5 346) rotate(0 109.5 31)"><path d="M0 0 C0 0, 0 0, 0 0 M0 0 C0 0, 0 0, 0 0 M-0.29 5.82 C0.76 5.57, 2.51 3.41, 5.05 -0.07 M0.12 6.29 C0.92 4.83, 1.73 3.81, 4.73 0.01 M-1.27 11.69 C2.62 9.07, 5.65 6.38, 10.07 -1.59 M-0.65 12.59 C3.74 9.38, 6.3 5.98, 11.24 0.3 M-1.64 16.74 C4.95 10.89, 11.51 5.3, 16.88 0.19 M-0.96 17.69 C6.39 12.05, 10.87 4.19, 15.32 -0.03 M2.17 23.71 C9.01 17.06, 14.51 5.82, 21.7 -1.5 M0.22 23.4 C4.46 19.31, 9.67 13.14, 21.6 0.51 M1.65 32.19 C7.9 20.11, 21.53 6.23, 25.18 -0.77 M-0.73 30.08 C9.39 19.87, 18.25 10.22, 25.96 0.02 M-2.12 38.65 C8.31 29.49, 13.86 21.07, 31.83 -0.18 M-0.14 36.1 C12.42 21.79, 23.67 7.51, 32.56 0.82 M0.5 42.24 C9.01 31.86, 15.48 24.25, 35.91 0.68 M-0.27 42.94 C7.65 33.02, 15.96 25.34, 36.53 1.23 M1.06 48.83 C14.58 33.95, 29.9 16.35, 43.97 -1.25 M0.48 49.08 C11.68 35.6, 22.56 22.25, 42.07 0.24 M-1.08 53.3 C14.77 38.15, 29.5 22.66, 48.95 -0.69 M1.03 55.4 C12.64 39.15, 27.16 24.39, 47.05 1.17 M-0.68 59.39 C16.18 43.49, 35.05 21.36, 52.75 1.55 M0.24 60.86 C16.87 40.95, 34 21.07, 53.12 0.27 M1.91 62.99 C18.06 45.64, 35.03 25.73, 56.25 -1.64 M2.94 64.85 C15.4 49.57, 26.29 35.97, 58.27 0.46 M8.85 62.15 C23.08 47.63, 40.34 27.09, 61.9 -2.06 M8.58 63.18 C29.02 40.96, 49.16 16.91, 62.96 -0.11 M12.12 63.09 C27.65 50.11, 40.78 32.58, 67.76 -0.46 M12.09 64.94 C31.3 44.06, 48.46 22.61, 68.68 -0.3 M18.72 62.47 C41.17 41.12, 60.54 16.64, 74.11 -0.89 M19.56 64.89 C36.04 43.61, 52.59 24.2, 74.07 0.6 M24.1 64.23 C38.64 45.75, 56.14 28.03, 77.47 1.02 M23.23 65.15 C38.67 46.43, 53.67 29.53, 79.5 0.54 M28.69 63.17 C44.85 44.84, 58.26 28.11, 85.16 -0.29 M28.57 64.83 C45.8 44.67, 60.39 27.91, 85.16 -0.59 M33.99 62.7 C50.74 45.17, 65.43 28.19, 89.4 -0.57 M33.89 64.7 C54.06 38.76, 76.52 14.7, 89.67 0.64 M39.14 62.51 C56.83 46.92, 69.34 28.76, 93.83 -0.13 M39.39 64.83 C58.06 43.61, 76.66 21.55, 96.17 -0.13 M44.95 64.25 C60.49 45.35, 74.42 27.35, 99.61 -0.11 M44.82 63.3 C61.63 43.3, 79.65 23.35, 100.89 0.65 M50.51 63.23 C71.36 38.83, 92.75 15.96, 107.95 -0.81 M50.52 63.76 C65.13 46.09, 81.5 29.01, 107.29 -0.98 M57.18 66.1 C72.03 45.65, 87.63 26.53, 110.18 1.99 M55.03 64.2 C76.97 39.49, 97.9 15.61, 110.59 -0.74 M60.59 63.29 C74.11 49.12, 84.89 33.32, 117.69 -0.52 M59.54 65.24 C73.67 49.96, 86.69 34.59, 117.27 1.19 M65.9 62.94 C78.77 48.09, 93.17 32.91, 123.23 1.76 M66.73 63.14 C82.61 46.5, 97.4 28.41, 122.91 0.16 M69.2 62.86 C83.9 51.95, 94.61 40.64, 128.26 -0.23 M70.72 63.65 C92.04 39.95, 112.26 16.79, 127.07 -0.06 M75.37 64.92 C94.16 47.79, 105.47 30.25, 130.89 1.72 M76.4 63.41 C93.75 45.39, 111.81 26.29, 131.75 -0.92 M80.19 62.82 C96.64 46.3, 113.9 27.7, 137.92 -1.18 M82.11 63.64 C98.97 45.57, 115.35 26.43, 136.93 -0.37 M88.87 63.68 C101.03 49.25, 114.7 31.18, 141.36 0.87 M87.72 64.77 C107.13 43.84, 125.8 20.69, 143.73 0.74 M94.12 63.8 C112.6 40.93, 129.83 19.97, 146.6 2.09 M93.17 64.12 C107.07 47.57, 123.03 30.42, 147.96 -0.63 M98.73 62.3 C122 38.04, 141.04 12.93, 152.85 0.66 M98.62 64.53 C115.28 44.6, 133.2 24.3, 153.22 -0.11 M101.58 64.86 C126.58 41.02, 144.26 14.84, 157.28 0.52 M103.04 64.04 C115.17 50.38, 126.42 38.07, 158.51 0.79 M108.28 65.35 C124.32 48.06, 137.42 30.19, 163.58 -1 M108.28 64.51 C125.71 46.13, 141.8 27.29, 165.31 0.29 M113.18 65.57 C124.06 51.43, 136.55 39.29, 169.98 0.52 M113.65 65.33 C128.29 46.98, 142.58 31.73, 169.18 1.03 M117.93 64.87 C133.78 48.31, 146.94 29.75, 173.84 0.29 M120.08 64.04 C130 49.44, 141.67 35.4, 174.83 -0.29 M125.57 63.93 C142.39 41.82, 159.6 22.1, 179.72 1.98 M124.64 63.97 C137.67 48.93, 152.64 31.03, 179.77 -0.25 M131.07 62.35 C142.08 50.31, 154.74 38.1, 183.92 1.4 M130.67 62.96 C148.46 41.53, 169.7 19.34, 185.34 -1.05 M135.42 62.43 C151.55 43.05, 169.13 22.51, 190.57 0.22 M134.37 64.94 C149.43 46.31, 164.39 28.66, 190.35 0.13 M140.15 62.77 C161.15 38.98, 183.53 13.79, 196.17 1.64 M140.91 64.64 C153.98 48.21, 168.14 32.08, 196.14 -1.19 M145.44 66.03 C157.08 48.79, 171 36.35, 201.64 0.08 M144.97 65.22 C158.95 50.31, 169.84 36.26, 202.2 -0.14 M152.65 64.56 C165.69 46.64, 179.76 32.74, 208.94 0.83 M150.9 62.95 C173.08 39.89, 194.42 15.73, 207.26 -0.88 M154.39 64.15 C167.52 50.37, 179.95 38.26, 213.06 1.82 M155.27 64.84 C170.07 47.52, 185.23 31.41, 212.86 0.13 M161.07 65.64 C180.22 44.48, 198.51 21.94, 218.64 1.22 M160.98 63.29 C176.99 45.99, 194.31 27.68, 218.46 -0.28 M167.02 64.68 C178.47 48.75, 190.66 37.11, 222.67 0.71 M165.85 63.81 C178.99 49.25, 190.7 35.45, 221.76 2.2 M172.3 66.13 C186.62 49.45, 199.21 30.33, 222.47 9.86 M172.07 64.33 C183.2 51.48, 194.66 38, 221.04 7.76 M176.14 63.98 C192.98 45.84, 211.61 27.88, 222.15 15.79 M178.03 63.18 C195.01 43.46, 210.69 24.29, 221.37 15.1 M184.21 63.37 C193.8 48.97, 207.64 33.78, 222.83 19.42 M183.27 63.97 C198.49 47.17, 213.47 30.02, 221.16 19.59 M188.58 64.89 C202.55 49.64, 213.87 35.47, 221.21 25.66 M188.86 64.01 C197.43 52.9, 208.21 42.34, 220.41 26.5 M191.75 66.42 C200.47 59.31, 204.5 50.59, 221.5 31.8 M192.99 64.92 C199.73 57.81, 206.2 49.5, 221.08 31.32 M199.22 62.7 C206.44 54.87, 211.8 49.43, 219.46 37.23 M198.11 64.36 C205.05 57.7, 212.25 49.74, 220.7 38.45 M203.56 63.08 C210.49 59.19, 215.8 50.15, 222.33 43.89 M204.49 64.63 C207.65 58.5, 213.4 53.38, 220.83 45.6 M208.99 63.26 C214.62 59.35, 218.47 54.35, 220.27 50.18 M209.31 64.31 C211.3 60.47, 214.34 58.23, 221.84 50.69 M214.8 63.49 C215.43 61.8, 218.23 59.74, 220.04 57.83 M214.29 64.74 C216.4 62.16, 217.7 60.35, 221.03 57.35" stroke="#e64980" stroke-width="0.5" fill="none"></path><path d="M0.67 -0.35 C70.59 -3.35, 143.95 -3.02, 220.05 1.48 M-0.33 0.01 C71.61 -1, 141.69 -0.5, 219.35 0.11 M220.84 -0.36 C218.63 13.61, 219.14 29.98, 217.31 60.52 M218.99 0.23 C218.6 17.27, 219.58 34.06, 218.15 62.59 M220.6 60.52 C142.31 62.05, 65.71 63.37, 0.64 61.77 M218.22 62.22 C166.31 60.02, 112.6 61.09, 0.85 61.44 M-1.98 63 C1.07 45.35, 1.62 25.51, 1.77 0.25 M-0.47 61.92 C1.14 49.64, 0.61 36.11, -0.89 -0.38" stroke="#000000" stroke-width="1" fill="none"></path></g><g transform="translate(304 363.5) rotate(0 69 13.5)"><text x="69" y="19" font-family="Virgil, Segoe UI Emoji" font-size="20px" fill="#000000" text-anchor="middle" style="white-space: pre;" direction="ltr">IntegerMatrix</text></g><g stroke-linecap="round" transform="translate(503.5 345) rotate(0 109.5 31)"><path d="M0 0 C0 0, 0 0, 0 0 M0 0 C0 0, 0 0, 0 0 M0.45 6.91 C0.47 4.57, 2.91 3.29, 5.45 0.79 M-0.24 6.64 C0.81 5.16, 2.9 3.36, 4.98 0.5 M0.68 13.41 C3.45 7.13, 7.26 3.63, 9.89 -1.47 M-0.18 11.55 C4.02 7.57, 7.88 2.73, 10.03 0.24 M-1.68 19.56 C2.98 14.86, 6.75 8.57, 15.85 1.74 M-0.91 19.09 C4.46 13.53, 8.01 9.7, 16.04 0.74 M0.9 24.17 C9.42 15.46, 16.4 6.63, 19.86 0.8 M-0.06 23.99 C4.85 17.31, 11.1 11.54, 21.93 -0.1 M1.14 28.54 C11.43 20.96, 18.66 6.66, 27.9 -0.3 M-0.93 29.5 C6.05 21.97, 12.44 15.79, 26.61 -0.36 M-0.37 35.56 C8.89 26.22, 16.17 15.51, 29.96 -0.23 M0.16 35.96 C8.9 25.22, 18.28 14.94, 31.62 -0.41 M-1.34 43.63 C9.22 35.18, 17.04 23.81, 36.34 -1.29 M0.49 42.71 C11.96 28.43, 22.82 17.05, 37.37 0.03 M-2.01 50.22 C10.23 37.02, 18.14 29.84, 42.53 -0.22 M0.61 49.28 C8.69 37.85, 19.19 28.58, 43.05 -0.26 M-0.95 53.9 C10.4 42.16, 23.85 27.85, 45.69 -0.78 M-0.38 53.9 C14.32 37.63, 28.5 23.13, 47.03 0.8 M1.47 61.7 C17.18 45.45, 32.02 25.24, 53.57 -0.48 M-0.47 60.39 C13.87 44.71, 26.89 28.51, 52.8 0.47 M1.9 64.14 C12.63 53.19, 24.1 37.64, 56.95 0.72 M3.2 63.72 C19.09 44.22, 36.93 23.96, 57.33 0.04 M8.55 64.81 C23.68 46.29, 43.66 23.52, 62.56 1.74 M8.72 63.14 C25.46 43.2, 43.15 23.75, 63 0.63 M14.87 65.95 C27.45 47.54, 41.51 28.2, 69.56 -0.3 M12.11 64.29 C27.01 46.83, 42.71 30.82, 68 0.09 M19.07 62.46 C29.17 52.37, 41.5 38.19, 74.43 -0.79 M18.85 64.72 C38.07 41.67, 57.93 18.61, 74.26 -1.21 M23.98 66.27 C37.35 46.51, 50.16 31.82, 79.44 -0.29 M24.62 64.81 C41.28 42.79, 59.57 22.07, 79.82 0.51 M27.95 65.58 C50.71 39.43, 70.13 15.33, 85.59 0.74 M30.25 64.53 C52.74 39.28, 74.37 13.25, 84.74 0.26 M35.28 62.28 C46.28 48.12, 61.25 31.64, 89 1.3 M35.07 63.4 C47.62 49.24, 60.99 34.61, 89.54 -0.87 M39.2 63.13 C58.92 41.83, 80.59 17.94, 93.91 1.15 M39.88 63.2 C61.53 37.89, 83.18 12.77, 95.09 0.1 M44.26 65.19 C65.86 38.92, 86.75 18.22, 101.09 0.09 M44.31 63.92 C66.06 38.33, 89.86 13.66, 100.98 0.96 M49.31 63.06 C70.38 38.13, 91.25 14.45, 104.75 -0.69 M49.73 64.56 C67.76 44.07, 87.12 23.96, 105.48 0.08 M53.89 62.24 C66.3 48.83, 78.45 36.47, 113.04 0.7 M54.69 64.98 C67.56 49.39, 80.21 35.95, 111.93 -0.7 M60.58 63.15 C79.47 42.41, 97.39 23.72, 116.26 0.88 M61.13 65.47 C75.04 49.21, 87.62 35.01, 115.96 0.48 M64.62 62.71 C78.12 51.91, 90.12 39, 122.64 -1.2 M67.1 64.89 C86.31 40.71, 105.83 18.02, 121.22 0.64 M69.74 65.92 C84.45 49.86, 94.1 37.4, 128.03 1.28 M70.41 63.74 C87.66 45.14, 103.59 27.59, 126.04 0.04 M76.35 63.9 C91.74 48.91, 104.61 32.12, 134.17 -0.92 M75.93 64.72 C89.52 48.39, 104.61 33.34, 131.69 -0.26 M82.03 65.2 C94.21 49.9, 108.5 34.68, 139.16 0.21 M81.94 63.67 C96.39 47.95, 112.54 29.79, 137.78 -0.5 M86.46 65.14 C101.22 48.67, 117.58 33.1, 144.37 1.26 M88.09 63.28 C108.5 40.32, 129.94 14.87, 143.19 0.56 M91.82 65.08 C110.55 45.63, 129.34 20.92, 148.87 0.68 M91.76 64.05 C106.52 47.47, 122.41 29.69, 147.43 -0.43 M99.79 65.79 C112.74 49.38, 123.37 33.06, 152.43 -1.9 M98 64.08 C114.15 46, 129.02 27.51, 153.59 -0.67 M103.93 62.71 C118.93 45.76, 132.24 30.07, 157.86 -0.31 M103.92 63.92 C119 46.69, 134.05 29.89, 159.73 0.71 M110.65 63.26 C121.39 48.21, 130.41 36.98, 166.02 1.39 M108.61 64.4 C124.18 46.02, 138.09 29.7, 163.79 -0.53 M115.66 66.23 C128.95 46.97, 147.06 26.04, 170.26 -1.69 M113.51 63.52 C128.3 46.2, 142.64 29.6, 168.96 0.11 M120.84 62.98 C135.65 47, 151.11 27.03, 175.3 -0.05 M118.36 64.24 C135.51 47.22, 150.29 28.02, 174.67 0.69 M122.77 64.84 C140.77 46.45, 161.43 24.19, 179.72 -0.38 M123.6 63.36 C146.84 40, 167.7 14.02, 179.9 0.7 M129.6 64.39 C151.23 36.07, 175.1 13.54, 186.88 1.63 M130.25 63.33 C147.81 43.25, 167.11 21.66, 186.16 -0.12 M133.51 62.78 C152.37 42.97, 172.63 17.19, 191.33 -1.27 M134.31 65.15 C156.3 39.99, 178.49 14.91, 190.85 0.12 M139.64 63 C158.02 40.33, 177.66 18.81, 197.82 -0.69 M140.74 64.15 C162.25 39.71, 183.58 13.92, 196.19 0.21 M146.57 65.29 C164.56 40.13, 187.11 16.61, 199.66 0.79 M145.76 64.87 C164.85 42.67, 184.32 20.4, 200.63 -0.23 M151.17 64.33 C171.93 39.83, 191.51 17.45, 205.68 0.9 M150.84 62.89 C167.61 43.85, 184.77 24.41, 207.72 0.05 M157.13 64.66 C177.56 37.99, 198.56 14.18, 210.72 -1.02 M157.08 63.7 C176.81 40.15, 195.42 17.18, 211.56 -0.22 M159.84 61.92 C185.16 37.57, 206 13.22, 218.49 -0.66 M161.08 64.49 C179.22 44.31, 196.62 24.64, 217.69 0.02 M166.84 62.21 C185.87 44.14, 200.87 23.77, 222.72 2.03 M167.42 65.07 C179.9 49.75, 195.23 33.81, 221.18 1.51 M170.11 64.12 C187.05 48.19, 202.69 30.74, 221.49 6.92 M171.83 64.39 C186.28 47.96, 200.38 31.96, 220.89 8.27 M177.8 62.3 C186.19 53.68, 196.88 43.7, 222.1 14.97 M176.95 63.66 C189.01 49.98, 201.38 37.71, 221.33 13.38 M183.9 65.04 C198.91 48.07, 210.59 30.08, 221.6 20.1 M182.95 64.47 C193.83 50.01, 206.43 36.98, 221.23 20.37 M186.59 62.3 C196.34 55.44, 202.82 44.06, 219.79 27.01 M187.85 64.36 C200.86 49.07, 212.19 35.07, 221.38 25.62 M194.61 63.07 C198.75 58.92, 206.73 49.19, 221.51 31.16 M192.86 64.65 C201.41 54.24, 211.01 42.45, 221.01 31.86 M198.26 62.62 C204.96 56.33, 208.08 53.5, 219.04 40.2 M199.33 63.3 C206.35 55.14, 215.22 45.9, 221.07 38.07 M203.78 63.89 C210.01 56.3, 216.43 52.55, 222.45 45.92 M204.13 64.78 C208.4 59.16, 212.2 53.77, 220.6 45.06 M208.43 64.65 C212.29 59.36, 214.83 57.61, 221.23 49.94 M208.66 64.77 C214.15 58.19, 218.03 53.89, 221.29 49.62 M214.36 63.81 C215.75 62.33, 219.37 59.58, 220.49 55.91 M214.09 64.44 C216.45 62.46, 218.11 59.68, 221.12 57.04" stroke="#be4bdb" stroke-width="0.5" fill="none"></path><path d="M-0.91 -0.42 C88.34 2.48, 171.7 1.43, 217.98 -1.73 M-0.08 -0.14 C74.74 1.27, 149.51 2.3, 219.72 -0.62 M220.08 0.92 C220.59 18.53, 218.8 37.3, 217.23 62.85 M219.35 -0.61 C217.58 14.38, 218.71 28.82, 219.82 61.48 M219.3 61.68 C159.31 62.71, 104.62 62.91, 0.91 63.2 M219.07 61.75 C135.94 63.05, 53.71 63.58, -0.32 62.47 M-0.09 61.53 C-1.62 37.97, 1.51 17.38, -1.13 -2 M-0.66 62.18 C1.17 45.03, 0.66 29.37, -0.67 -0.24" stroke="#000000" stroke-width="1" fill="none"></path></g><g transform="translate(558.5 362.5) rotate(0 54.5 13.5)"><text x="54.5" y="19" font-family="Virgil, Segoe UI Emoji" font-size="20px" fill="#000000" text-anchor="middle" style="white-space: pre;" direction="ltr">LongMatrix</text></g><g stroke-linecap="round" transform="translate(750.5 343) rotate(0 109.5 31)"><path d="M0 0 C0 0, 0 0, 0 0 M0 0 C0 0, 0 0, 0 0 M0.27 7.06 C1.76 5.1, 2.63 3.25, 5.42 -0.08 M-0.65 6.2 C1.79 4.03, 3.72 1.35, 5.23 0.08 M-1.21 12.11 C1.58 10.2, 4.12 5.77, 9.1 1.1 M-0.15 11.26 C3.46 8.61, 6.1 5.21, 11.21 0.76 M-1.42 18.19 C4.77 10.05, 11.76 3.46, 16.44 1.63 M0.37 19.02 C5.05 12.29, 12.54 4.62, 15.64 1.32 M-0.29 22.14 C5.55 17.68, 14.09 9.48, 23.09 1.29 M-0.11 23.66 C4.95 17.41, 10.61 10.32, 21.09 0.1 M1.52 29.07 C7.75 24.8, 15.01 13.36, 27.11 -1.36 M-0.96 30.09 C9.52 18.58, 20.51 8.08, 26.59 -0.51 M1.37 35.3 C5.08 28.43, 13.31 22.63, 30.46 0.28 M-0.94 37.22 C6.17 28.94, 14.3 20.18, 32.14 -0.71 M2.03 43.98 C8.49 32.33, 19.41 22.01, 37.09 -1.56 M-0.57 42.82 C13.48 28.55, 26.52 13.74, 36.29 0.81 M1.4 50.64 C15.32 30.82, 31.89 9.53, 43.85 -1.71 M0.59 49.68 C16.4 29.46, 33.94 11.45, 42.99 -0.34 M-1.24 55.24 C7.93 44.85, 18.62 30.36, 46.91 -0.74 M0.17 55.14 C16.75 36.24, 32.44 18.64, 47.07 -0.36 M1.27 59.51 C16.01 44.79, 32.92 22.85, 52.74 -1.69 M0.38 60.97 C16.94 42.59, 33.22 23.3, 53.1 -0.45 M0.79 63.95 C23.83 43.04, 42.22 19.17, 56.52 -0.67 M2.91 63.94 C17.33 48.68, 32.17 32.13, 58.81 1.06 M6.45 63.46 C29.02 40.66, 47.05 19.4, 65.08 0.34 M8.35 63.94 C26.91 44.09, 42.69 23.91, 63.98 -0.46 M12.27 62.93 C35.53 39.83, 56.61 14.09, 67.36 -1.08 M13.88 65.08 C31.72 42.47, 49.28 21.54, 67.88 -0.08 M18.75 65.18 C34.3 45.54, 48.93 26.3, 73.31 -0.58 M17.8 64.26 C40.32 37.72, 63.33 13.1, 74.14 -0.53 M22.7 65.41 C37.04 48.17, 52.65 32.51, 80.34 -1.66 M23.27 65 C43.56 38.62, 65.97 15.61, 80.17 -0.24 M30.09 64.37 C39.42 48.83, 52.79 34.73, 84.3 -0.39 M30.21 63.33 C47.12 44.09, 63.07 24.68, 84.09 -0.61 M32.6 63.82 C49.26 43.69, 66.9 24.96, 89.85 -0.08 M33.77 64.58 C57.36 38.39, 78.77 13.23, 90.1 -0.11 M40.47 63.73 C53.68 49.19, 62.89 37.01, 97.43 0.02 M40.17 63.26 C58.09 46.02, 73.77 25.76, 95.39 0.58 M42.97 65.66 C61.26 46.74, 74.52 28.92, 101.71 2.03 M45.13 63.9 C63.33 41.96, 84.72 19.19, 101.59 0.35 M49.35 62.01 C64.54 48.15, 77.16 33.56, 106.52 0.77 M49.78 62.89 C73.07 38.64, 93.21 14.79, 105.6 0.56 M57.26 63.42 C74.32 44.84, 91.45 25.45, 111.26 1.06 M55.08 63.32 C76.17 39.35, 97.76 16.73, 111.07 0.89 M61.02 64.73 C78.51 44.53, 93.67 25.03, 117.21 1.79 M61.03 63.57 C75.01 47.64, 89.55 30.24, 116.62 0.87 M67.38 64.63 C88.18 41.03, 108.84 15.7, 121.26 1.45 M66.39 64.4 C88.42 38.38, 111.29 12.69, 122.51 0.02 M69.2 63.19 C86.25 45.68, 102.13 29.95, 127.59 1.75 M71.36 65.08 C90.34 41.09, 111.1 15.82, 126.36 0.97 M75.74 65.88 C96.35 38.05, 117.9 14.58, 131.97 1.64 M75.83 64.94 C90.84 47.75, 106.17 30.21, 132.38 -0.03 M83.11 64.97 C96.57 49.65, 110.68 31.54, 138.23 0.65 M80.79 65.24 C96.41 47.17, 110.88 31.31, 137.78 -0.15 M89.19 62.76 C107.39 45.36, 124.77 23.42, 143.12 0.14 M87.2 63.99 C104.46 46.09, 120.66 27.72, 142.67 -0.28 M92.1 64.94 C103.86 50.72, 116.5 34.65, 148.83 -1.28 M91.48 63.83 C106.19 48.81, 120.17 34.1, 148.48 -0.04 M97.07 63.9 C113.48 46.15, 132.65 26.59, 151.89 1.47 M98.31 64.83 C112.51 46.63, 126.11 31.28, 153.87 -0.04 M102.97 64.01 C122.75 40.73, 145.3 15.68, 159.58 -0.73 M102.12 64.36 C119.65 45.63, 134.58 27.76, 159.11 1.02 M109.16 64.96 C125.27 42.05, 143.95 23.39, 162.93 -1.83 M107.97 63.95 C131.79 38.95, 152.6 12.67, 164.01 0.14 M114.01 63.08 C136.92 38.17, 157.02 12.72, 169.11 -1.38 M112.93 65.09 C131.75 41.88, 152.66 18.64, 170.32 0.94 M117.75 62.64 C137.89 43.48, 155.84 24.02, 174.38 0.83 M119.03 64.1 C133.99 46.72, 150.83 29.64, 175.62 -0.57 M124.97 65.14 C145.61 38.89, 166.55 14.42, 180.54 0.1 M124.63 63.99 C138.86 46.77, 154.87 30.72, 179.77 0.89 M131.56 64.66 C141.52 48.7, 156.44 34.23, 183.83 0.07 M129.34 63.26 C144.83 48.08, 158.98 30.11, 184.76 -0.27 M135.08 65.16 C154.11 43.13, 170.34 23.14, 191.44 0.1 M135.44 63.79 C148.06 48.47, 160.67 35.45, 191.15 0.28 M141.79 63.78 C152.53 50.37, 169.49 31.44, 194.35 0.54 M140.77 63.64 C155.36 47.78, 169.44 31.64, 195.98 0.68 M145.02 64.17 C160.67 48.97, 170.9 34, 199.86 2.04 M146.14 64.94 C164.58 44.13, 182.14 23.89, 201.15 -0.27 M152.13 63.78 C169.92 44.04, 186.08 24.45, 208.46 -1.09 M150.21 64.69 C172.47 39.51, 194.47 12.94, 207.37 0.67 M154.95 63.22 C177.61 40.14, 198.62 15.41, 210.32 -1.64 M156.97 64.64 C178.75 39.19, 199.29 14.44, 212.5 0.11 M160.71 65.49 C183.7 40.93, 202.63 15.9, 218.17 -2.11 M162.56 64.09 C177.82 44.45, 195.95 25.27, 217.52 -0.2 M166.49 65.4 C183.65 45.31, 198.38 27.39, 222.49 2.05 M166.74 63.79 C185.16 40.97, 205.56 19.67, 221.6 1.03 M173.49 65.51 C180.52 53.79, 191.47 40.1, 219.73 8.53 M171.09 65.5 C186.01 49.87, 199.21 34.56, 221.34 7.21 M176.75 65.81 C192.95 47.36, 206.81 28.73, 219.3 15.41 M177.73 64.07 C191.14 48.78, 204.25 33.87, 221.68 14.65 M180.86 63.22 C197.96 47.06, 213.83 30.9, 222.02 19.06 M183.02 64.57 C194 50.16, 204.22 37.53, 221.38 20.97 M188.28 65.62 C202.66 48.03, 214.06 34.54, 219.17 25.92 M188.77 64.85 C195.76 55.95, 202.33 47.34, 219.99 26.45 M191.71 63.27 C201.25 56.69, 209.94 46.43, 220.72 30.53 M192.67 64.43 C203.13 52.62, 214.88 40.27, 221.08 32.6 M199.11 66 C203.93 58.25, 211.71 48.7, 219.83 38.89 M198.19 64.28 C204.89 57.65, 209.99 51.7, 220.65 39.01 M202.07 62.61 C209.64 58.92, 211.87 57.11, 221.06 46.51 M202.98 63.71 C207.9 58.78, 212.74 53.69, 220.42 43.92 M208.82 62.34 C213.84 60.19, 215.53 55.1, 220.25 49.99 M208.87 64.18 C214.09 59.13, 219.31 53.49, 221.43 51.26 M213.36 64.81 C215.77 63.22, 217.46 61, 221.29 56.61 M214.14 64.33 C216.61 61.97, 218.66 59.07, 220.89 57.02" stroke="#7950f2" stroke-width="0.5" fill="none"></path><path d="M-1.07 -0.51 C74.41 -1.11, 148.77 -2.98, 218.74 0.11 M0.38 -0.61 C66.35 0.14, 130.52 -1.04, 219.85 0.1 M217.39 -0.27 C217.45 17, 218.56 31.75, 220.67 61.37 M219.82 -0.38 C219.96 15.73, 218.91 33.53, 218.77 61.64 M218.97 61.34 C140.03 61.3, 63.86 58.97, -0.12 60.41 M218.37 61.55 C152.19 62.27, 84.16 62.41, -0.24 62.43 M1.62 62.06 C0.25 43.03, -0.98 22.27, -1.94 -1.05 M1 61.93 C-0.98 43.31, -0.38 25.79, -0.21 0.24" stroke="#000000" stroke-width="1" fill="none"></path></g><g transform="translate(800.5 360.5) rotate(0 59.5 13.5)"><text x="59.5" y="19" font-family="Virgil, Segoe UI Emoji" font-size="20px" fill="#000000" text-anchor="middle" style="white-space: pre;" direction="ltr">FloatMatrix</text></g><g stroke-linecap="round" transform="translate(993.5 343) rotate(0 109.5 31)"><path d="M0 0 C0 0, 0 0, 0 0 M0 0 C0 0, 0 0, 0 0 M0.44 6.67 C0.33 4.31, 1.96 2.94, 5.64 -0.27 M0 6.11 C0.98 4.79, 2.06 3.78, 4.71 0.5 M0.12 12.45 C1.41 8.32, 3.92 7.77, 12.14 1.13 M-0.12 12.13 C2.36 8.93, 6.33 4.54, 10.06 0.21 M0.6 17.26 C6.73 13.24, 12.53 6.75, 17.14 2.05 M-0.83 19.1 C3.22 14.51, 7.89 8.04, 16.33 1.09 M1.39 25.02 C5.67 15.64, 13.68 9.47, 19.75 0.61 M-0.6 23.78 C4.11 19.41, 9.14 13.65, 21.16 0.51 M1.63 29.61 C8.03 19.88, 20 7.57, 27.5 -1.16 M-0.86 30.27 C7.47 20.67, 15.76 10.89, 26.62 0.3 M1.37 36.78 C7.37 28.43, 15.53 17.86, 30.31 -0.49 M-0.01 36.07 C10.85 22.86, 23 9.19, 32.43 -0.5 M1.33 43.87 C14.55 28.19, 23.9 13.78, 35.31 -0.22 M0.15 43.17 C13.84 27.43, 26.36 11.74, 37.21 0.25 M0.59 49.32 C16.23 31.41, 32.85 8.94, 41.78 -1.51 M-0.86 48.21 C14.07 32.07, 28.54 15.75, 43.4 0.64 M-1.11 52.79 C14.64 37.84, 30.06 21.23, 47.62 1.5 M0.05 54.01 C13.29 40.68, 26.32 24.99, 46.67 0.57 M-0.93 60.41 C14.1 43.41, 27 29.79, 52.21 0.96 M0.95 61.43 C10.59 48.33, 23.8 34.97, 52.79 0.56 M3.96 65.89 C13.41 49.53, 25.83 38, 58.96 0.68 M1.72 63.97 C14.25 51.25, 25.53 38.9, 59.07 -0.36 M8.85 62.05 C27.53 40.69, 50.44 16.95, 62.12 -0.62 M7.55 63.85 C22 49.29, 35.2 33.45, 63.29 0.13 M13.24 64.45 C33.56 38.34, 53.43 14.28, 69.33 0.05 M12.6 65.18 C35.47 39.49, 56.15 13.78, 69.03 -0.43 M18.31 63.36 C41.98 37.93, 61.47 11.55, 72.49 1.22 M18.49 64.44 C38.39 43.34, 56.92 21.09, 74.65 -0.54 M24.81 66.13 C35.59 49.31, 44.81 37.66, 78.21 -1.68 M24.1 64.38 C40.73 46.37, 56.25 25.75, 78.64 -0.79 M29.92 62.47 C51.74 41.25, 70.57 16.66, 86.78 -1.03 M29.44 63.86 C51.59 39.06, 72.68 12.75, 84.6 -1.12 M35.75 63.8 C50.35 48.46, 60.84 32.85, 90.54 0.29 M34.13 64.7 C53.2 43.35, 69.92 23.42, 90.55 -0.88 M38.25 64.53 C55.56 48.44, 69.1 30.68, 96.9 0.19 M39.22 63.51 C61.64 39.95, 81.44 14.65, 95.91 -0.04 M43.62 65.39 C60.75 45.64, 77.72 27.4, 98.72 -1.25 M45.65 64.54 C62.16 46.21, 78.67 27.23, 100.88 0.64 M49.31 62.72 C62.63 52.84, 73.53 40.07, 105.26 1.44 M50.15 63.52 C65.39 48.1, 78.98 31.8, 105.35 0.5 M56.42 63.83 C69 47.76, 84.42 31.22, 112.63 0.53 M55.63 64.51 C74.1 41.98, 92.79 20.6, 110.3 0.8 M61.97 65.01 C75.95 46.42, 91.19 28.81, 118.06 -0.93 M60.43 64.5 C82.24 38.39, 103.53 12.17, 116.06 0.31 M66.64 63.11 C84.97 40.28, 104.58 19.6, 121.61 0.5 M66.04 64.47 C77.92 49.16, 91.47 35.1, 120.99 -0.61 M72.5 65.12 C88.89 43.01, 108.18 20.88, 125.93 0.21 M71.73 63.53 C84.46 48.9, 96.42 35.21, 127.17 1.14 M77.25 64.22 C95.23 45.36, 114.55 24.34, 132.48 -0.44 M76.87 64.49 C90.31 47.33, 104.38 30.29, 131.64 -0.08 M80.69 65.09 C102.31 44.17, 118.29 22.07, 138.03 1.27 M82.28 63.7 C92.98 52.37, 105.05 38.76, 136.83 0.26 M87.65 63.21 C107.92 42.86, 126.39 16.92, 143.53 -1.36 M87.15 63.91 C105.08 44.02, 124.8 22.32, 142.45 0.64 M90.44 66.21 C105.32 51.32, 115.11 39.33, 146.61 -1.05 M92.47 64.08 C113.35 40.2, 133.12 17.1, 147.89 0.41 M99.75 65.14 C110.27 49.99, 123.29 33.98, 154.49 0.7 M97.9 64.27 C113.68 46.09, 128.9 28.1, 154.14 -0.45 M103.13 63.81 C119.61 45.88, 132.16 28.87, 160.42 0.97 M103.2 63.46 C114.95 50.64, 126.31 37.69, 158.2 -0.43 M107.9 62.11 C126.36 43.54, 146.62 20.91, 164.6 0.72 M109.15 64.37 C129.28 39.89, 149.66 17.37, 164.96 -0.65 M115.6 65.28 C132.16 42.86, 149.51 23.46, 170.65 0.09 M112.91 63.36 C125.9 49.05, 138.8 35.14, 169.63 -0.05 M120.93 63.26 C142.95 36.87, 161.24 12.31, 174.54 -0.27 M118.97 63.23 C141.63 40.14, 161.6 15.3, 175.65 0.5 M126.18 63.99 C144.82 39.42, 166.28 16.07, 180.99 0.1 M124.53 65.07 C144.17 41.68, 164.77 17.23, 179.08 1 M128.15 64.74 C144.78 50.55, 157.89 33.65, 184.47 -1.22 M130.42 63.11 C146.53 44.52, 165.2 24.19, 186.49 0.19 M136.63 65.39 C156.18 41.14, 177.88 13.43, 189.57 1.81 M134.52 64.57 C154.22 41.07, 175.78 17.06, 191.43 0.4 M141.31 63.76 C152.88 49.88, 163.33 34.73, 196.01 0.95 M140.61 64.5 C158.38 44.8, 175.97 25.02, 196.26 -0.65 M146.22 64.93 C157.94 47.42, 173.92 34.97, 203.01 1.07 M145.85 63.61 C157.73 50.01, 169.32 34.93, 200.6 1.06 M152.66 64.53 C167.92 43.87, 189.58 22.46, 206.26 1.37 M151.63 63.13 C168.73 44.3, 186.2 24.13, 207.25 -0.37 M157.67 66.09 C176.18 43.6, 195.33 20.9, 210.38 -1.22 M157.01 64.66 C173.47 43.32, 192.32 23.74, 212.54 0.13 M160.9 64.32 C183.59 43.82, 200.77 20.94, 217.79 1.18 M161.61 62.97 C184.32 37.29, 207.75 11.41, 218.29 0.41 M167.15 62.41 C186.17 41.84, 204.24 20.99, 219.92 0.34 M167.01 63.91 C182.11 45.75, 200.19 25.88, 220.87 1.5 M172.55 64.16 C185.73 48.6, 198.52 34.72, 221.42 9.86 M171.02 63.95 C184.92 48.57, 198.28 33.94, 220.49 8.14 M178.34 63.44 C194.72 44.1, 208.57 28.85, 219.12 12.51 M178.35 64.3 C195.69 44.05, 211.81 25.27, 220.04 13.61 M182.56 63.86 C190.49 53.76, 202.8 43.26, 220.57 18.09 M182.32 64.01 C195.32 50.39, 209.46 35.01, 220.63 20.14 M188.35 64.76 C200.35 50.06, 210.08 38.02, 218.96 27.2 M188.08 64.52 C197.41 53.21, 207.96 42.28, 220.51 26.23 M192.38 64.54 C202.69 54.98, 212.96 45.05, 221.49 33.33 M193.04 64.56 C201.34 54.88, 207.61 45.84, 220.35 31.22 M197.78 65.98 C204.68 56.54, 208.17 52.43, 221.75 38.16 M198.75 63.96 C205.44 56.83, 211.85 51.02, 221.63 38.2 M202.6 63.56 C207.32 60.97, 211.06 54.02, 219.99 45.62 M203.35 64.5 C207.88 59.58, 210.05 55.82, 219.88 44.49 M208.77 64.68 C211.99 57.84, 219.1 54.58, 222.72 49.54 M209.41 63.79 C212.08 61, 215.31 56.03, 220.48 50.8 M214.29 64.88 C215.44 62.42, 216.34 61.09, 221.07 57.8 M214.38 64.19 C216.86 61.43, 219.68 58.18, 220.9 57.17" stroke="#4c6ef5" stroke-width="0.5" fill="none"></path><path d="M0.48 0.88 C66.52 -1.42, 129.6 1.37, 220.14 1.44 M-0.26 0.47 C86.43 -0.12, 174.58 -0.53, 218.15 -0.43 M217.97 1.22 C217.7 17.28, 217.74 39.22, 217.32 62.08 M218.52 -0.96 C220.08 14.33, 218.77 29.19, 218.64 61.03 M217.47 63.27 C139.28 64.68, 55.29 63.23, -1.12 61.78 M218.49 62.36 C166.91 62.58, 113.49 61.53, 0.43 62.51 M0.43 62.04 C1.46 49.89, -2.49 35.87, -0.55 -1.94 M0.32 62.91 C0.32 48.18, 0.36 34.32, -0.37 -0.42" stroke="#000000" stroke-width="1" fill="none"></path></g><g transform="translate(1037.5 360.5) rotate(0 65.5 13.5)"><text x="65.5" y="19" font-family="Virgil, Segoe UI Emoji" font-size="20px" fill="#000000" text-anchor="middle" style="white-space: pre;" direction="ltr">DoubleMatrix</text></g><g stroke-linecap="round"><g transform="translate(607 197) rotate(0 -121.49153158267984 70.83050874743611)"><path d="M0.78 0.54 C-3.76 11.48, 9.02 49.2, -27.29 64.85 C-63.59 80.5, -180.97 81.61, -217.05 94.45 C-253.13 107.29, -239.4 133.96, -243.76 141.88 M-0.27 -0.22 C-4.9 10.9, 8.31 49.83, -27.86 65.78 C-64.04 81.73, -181.35 83.14, -217.31 95.47 C-253.27 107.81, -239.09 132.5, -243.63 139.79" stroke="#000000" stroke-width="1" fill="none"></path></g><g transform="translate(607 197) rotate(0 -121.49153158267984 70.83050874743611)"><path d="M-249.6 115.58 C-250.58 123.39, -247.56 128.9, -242.15 140.32 M-250.85 114.63 C-247.78 124.17, -244.44 134.56, -243.1 139.76" stroke="#000000" stroke-width="1" fill="none"></path></g><g transform="translate(607 197) rotate(0 -121.49153158267984 70.83050874743611)"><path d="M-231.67 117.11 C-237.9 124.58, -240.14 129.64, -242.15 140.32 M-232.92 116.15 C-236.66 124.99, -240.13 134.8, -243.1 139.76" stroke="#000000" stroke-width="1" fill="none"></path></g></g><g stroke-linecap="round"><g transform="translate(609 196) rotate(0 137.78485961763414 69.18178623352199)"><path d="M-0.6 0.21 C3.13 10.98, -16.36 48.22, 22.51 63.85 C61.37 79.49, 190.04 81.48, 232.59 94.02 C275.14 106.56, 270.1 131.56, 277.83 139.09 M1.29 -0.72 C4.9 10.3, -16.65 49.38, 21.82 65.31 C60.3 81.23, 189.51 82.86, 232.13 94.83 C274.75 106.79, 269.97 130.16, 277.54 137.1" stroke="#000000" stroke-width="1" fill="none"></path></g><g transform="translate(609 196) rotate(0 137.78485961763414 69.18178623352199)"><path d="M255.9 117.54 C261.97 124.09, 267.38 127.72, 279.35 137.31 M256.41 117.25 C264.04 125.53, 273.66 132.79, 278.24 137.23" stroke="#000000" stroke-width="1" fill="none"></path></g><g transform="translate(609 196) rotate(0 137.78485961763414 69.18178623352199)"><path d="M274.16 108.17 C274.53 117.53, 274.3 124.05, 279.35 137.31 M274.67 107.89 C275.15 119.95, 277.55 130.91, 278.24 137.23" stroke="#000000" stroke-width="1" fill="none"></path></g></g><g stroke-linecap="round"><g transform="translate(609 197) rotate(0 249.48379338387213 69.36925034124405)"><path d="M-0.88 -0.87 C6.16 10.32, -29.71 50.18, 43.41 67.44 C116.53 84.71, 361.32 90.79, 437.85 102.72 C514.38 114.65, 491.68 132.83, 502.59 139.02 M0.86 1.28 C7.68 12.08, -30.02 48.45, 42.67 65.55 C115.36 82.65, 360.37 91.55, 437 103.89 C513.64 116.23, 491.69 133.57, 502.5 139.61" stroke="#000000" stroke-width="1" fill="none"></path></g><g transform="translate(609 197) rotate(0 249.48379338387213 69.36925034124405)"><path d="M478.46 120.54 C489.62 127.58, 497.34 134.55, 500.87 139.71 M480.59 120.82 C487.13 125.41, 492.38 131.14, 502.19 139.07" stroke="#000000" stroke-width="1" fill="none"></path></g><g transform="translate(609 197) rotate(0 249.48379338387213 69.36925034124405)"><path d="M496.44 110.65 C500.52 121.46, 501.14 132.34, 500.87 139.71 M498.57 110.93 C499.97 118.3, 500.04 126.89, 502.19 139.07" stroke="#000000" stroke-width="1" fill="none"></path></g></g><g stroke-linecap="round"><g transform="translate(609 196) rotate(0 3.793571541613346 73.49748160747814)"><path d="M-0.11 0.91 C-0.31 7.83, -1.8 23.58, -0.47 41.08 C0.86 58.58, 7.71 88.55, 7.89 105.93 C8.07 123.31, 1.94 138.84, 0.63 145.36 M-1.62 0.34 C-2.08 7.51, -3.63 24.85, -1.66 42.66 C0.31 60.47, 9.72 89.88, 10.2 107.21 C10.68 124.54, 3.14 140.28, 1.21 146.66" stroke="#000000" stroke-width="1" fill="none"></path></g><g transform="translate(609 196) rotate(0 3.793571541613346 73.49748160747814)"><path d="M2.62 125.86 C1.2 132.03, 0.99 142.16, 1.81 146.75 M1.31 126.68 C0.72 132.97, 1 138.48, 2.06 145.8" stroke="#000000" stroke-width="1" fill="none"></path></g><g transform="translate(609 196) rotate(0 3.793571541613346 73.49748160747814)"><path d="M15.51 130.48 C9.44 134.97, 4.58 143.43, 1.81 146.75 M14.19 131.29 C9.7 136.12, 6.05 140.22, 2.06 145.8" stroke="#000000" stroke-width="1" fill="none"></path></g></g></svg>